# xmcd CD database file
#
# Track frame offsets:
#	150
#	14628
#	26026
#	35173
#	48767
#	60632
#	73155
#	85794
#	97619
#	110584
#	122217
#	132027
#	144059
#	157103
#	168877
#	180731
#	194981
#	209690
#	225651
#	237808
#
# Disc length: 3352 seconds
#
# Revision: 0
# Processed by: cddbd v1.5.2PL0 Copyright (c) Steve Scherf et al.
# Submitted via: CDex 1.51
#
DISCID=1a0d1614
DTITLE=Various Artist - The Ultimate Collection Country 100 Hits [CD05)
DYEAR=2009
DGENRE=Country
TTITLE0=Jeannie C Riley - Harper Valley PTA
TTITLE1=Willie Nelson - Night Life
TTITLE2=Webb Pierce - Honky Tonk Song
TTITLE3=Merie Travis - Divorce Me C.O.D.
TTITLE4=Ernest Tubb - Walking The Floor Over You
TTITLE5=Red Foley - Alabama Jubilee
TTITLE6=Al Dexter - Pistol Packin' Mama
TTITLE7=Gene Autry - Back In The Saddle Again
TTITLE8=Patsy Cline and Jim Reeves - I Fall To Pieces
TTITLE9=Freedy Fender - Before The Next Teardrop Falls
TTITLE10=Tom T Hall - Country Is
TTITLE11=Waylon Jennings - Don't Think Twice It's Allright
TTITLE12=Kenny Rogers -  Ruby, Don't Take Your Love To Town
TTITLE13=Barnara Fairchild - You Can't Put The City In A Country Girl
TTITLE14=Billie Jo Spears - Ease The Want In Me
TTITLE15=Eddie Rabbitt - I Love A Rainy Night
TTITLE16=Leanne Pruett - Satin Sheets
TTITLE17=Anne Murray - Both Sides Now
TTITLE18=Jeannie C. Riley - Country Girl
TTITLE19=Ernest Tubb - Goodnight Irene 
EXTD=YEAR: 2009
EXTT0=
EXTT1=
EXTT2=
EXTT3=
EXTT4=
EXTT5=
EXTT6=
EXTT7=
EXTT8=
EXTT9=
EXTT10=
EXTT11=
EXTT12=
EXTT13=
EXTT14=
EXTT15=
EXTT16=
EXTT17=
EXTT18=
EXTT19=
PLAYORDER=
